<?xml version="1.0" encoding="UTF-8" standalone="no"?>
<svg
   width="785.1748"
   height="785.21704"
   viewBox="0 0 785.1748 785.21704"
   version="1.1"
   xml:space="preserve"
   style="clip-rule:evenodd;fill-rule:evenodd;stroke-linecap:round;stroke-linejoin:round"
   id="svg4"
   sodipodi:docname="ampere.svg"
   inkscape:version="1.4.2 (f4327f4, 2025-05-13)"
   xmlns:inkscape="http://www.inkscape.org/namespaces/inkscape"
   xmlns:sodipodi="http://sodipodi.sourceforge.net/DTD/sodipodi-0.dtd"
   xmlns="http://www.w3.org/2000/svg"
   xmlns:svg="http://www.w3.org/2000/svg"><defs
     id="defs4" /><sodipodi:namedview
     id="namedview4"
     pagecolor="#ffffff"
     bordercolor="#000000"
     borderopacity="0.25"
     inkscape:showpageshadow="2"
     inkscape:pageopacity="0.0"
     inkscape:pagecheckerboard="0"
     inkscape:deskcolor="#d1d1d1"
     inkscape:zoom="1.5899183"
     inkscape:cx="392.78749"
     inkscape:cy="392.78749"
     inkscape:window-width="2560"
     inkscape:window-height="1369"
     inkscape:window-x="-8"
     inkscape:window-y="-8"
     inkscape:window-maximized="1"
     inkscape:current-layer="svg4" /><path
     id="path1"
     style="fill:#000000;fill-opacity:1;stroke:#000000;stroke-width:4;stroke-dasharray:none;stroke-dashoffset:0;stroke-opacity:1"
     d="M 387.49171,2.0324247 C 334.22016,2.7763017 281.09626,14.557091 232.61671,36.682815 179.38813,60.879516 131.67566,97.103702 94.050078,141.85858 62.187883,179.68855 37.383984,223.50575 21.81435,270.47244 7.0053779,314.87943 0.34942779,361.99567 2.3465038,408.76767 c 2.03932,49.56444 13.6018732,98.72984 33.9690162,143.9671 4.157001,9.25914 8.673554,18.3574 13.543372,27.2625 -13.728841,23.74249 -18.638294,52.52858 -13.158203,79.4336 5.30285,26.50321 20.452423,50.89033 41.837632,67.41507 18.047103,14.07062 40.396729,22.66475 63.283059,23.83824 22.00688,1.22778 44.36326,-4.06862 63.4008,-15.19863 58.48975,31.94517 125.26137,48.61949 191.91354,47.69499 46.47781,-0.58474 92.866,-9.5264 136.13504,-26.53932 44.37947,-17.36352 85.52173,-42.92731 120.80713,-74.95332 43.3729,-39.28893 77.98825,-88.25817 100.16109,-142.43874 15.94375,-38.84071 25.55528,-80.28817 28.15317,-122.19956 3.06417,-48.14446 -2.89022,-96.84883 -17.50318,-142.82627 -7.60544,-23.96263 -17.50349,-47.20145 -29.58281,-69.25145 13.84043,-24.4972 18.30112,-54.24955 11.7454,-81.65544 C 741.22531,98.195367 726.51385,75.257038 706.1497,59.441203 688.51666,45.601015 666.74131,37.002995 644.34773,35.48759 622.1524,33.89391 599.49606,38.938189 580.15382,49.964065 522.54308,18.341431 456.82443,1.6656947 391.10616,2.0050807 c -1.20493,-0.0065 -2.40963,0.01547 -3.61445,0.02734 z m 5.19922,64.6250003 c 7.04635,0.04642 14.00949,0.249065 21.05273,0.703125 2.80855,0.191666 5.8313,0.413941 8.65599,0.680059 10.07965,0.922416 20.01074,2.289973 29.95589,4.140425 16.06601,2.988877 32.01933,7.238647 47.4972,12.625231 11.50271,4.010199 22.91334,8.709079 33.9386,14.015316 3.74556,1.805399 7.36209,3.620159 11.07665,5.585459 7.02523,3.68112 13.87005,7.69239 20.64902,11.80552 4.14137,2.40132 8.7791,4.00767 13.5746,4.32411 9.4154,0.74838 19.06181,-2.77396 25.79715,-9.39252 12.61944,-10.56275 30.78389,-14.142693 46.4117,-8.88013 5.84872,1.91794 11.31026,4.97748 16.05453,8.8934 0.61536,0.50555 1.43942,1.22062 2.10938,1.83789 9.10749,8.3433 14.91436,20.20439 15.78588,32.53572 0.66781,9.24145 -1.37184,18.64568 -5.79105,26.78851 -2.03164,3.83304 -4.6264,7.33816 -7.50347,10.57532 -5.70606,6.74822 -8.13765,15.97201 -6.99475,24.68779 0.60361,4.88174 2.38516,9.58656 5.07371,13.69898 5.27995,8.53172 10.1136,17.3282 14.57616,26.31525 1.8076,3.64997 3.62884,7.49827 5.2963,11.22364 2.25412,5.00216 4.43804,10.26268 6.43126,15.38058 7.43433,19.06925 13.06988,38.91837 16.78806,59.09891 1.11928,6.09474 2.06736,12.20524 2.85287,18.38381 1.00042,7.97997 1.735,16.30933 2.13961,24.39863 0.42434,8.29335 0.51783,16.62476 0.2917,24.95922 -0.0811,3.03383 -0.21143,6.2945 -0.38928,9.35897 -0.22791,4.0294 -0.53432,8.22159 -0.91631,12.2366 -3.18843,34.41614 -12.07286,68.4409 -26.09226,100.10147 -14.80598,33.52215 -35.33796,64.55616 -60.35626,91.3779 -12.34286,13.23951 -25.83518,25.54332 -40.205,36.61712 -3.18892,2.47009 -6.48805,4.91064 -9.84563,7.30378 -5.06458,3.6122 -10.20966,7.06948 -15.50291,10.41016 -6.88745,4.34463 -14.07749,8.52228 -21.32949,12.36698 -2.09232,1.10547 -4.10355,2.13527 -6.21735,3.21387 -1.48538,0.73675 -3.16073,1.58288 -4.73438,2.33223 -18.08966,8.76008 -36.99906,15.82572 -56.40429,21.0623 -3.88826,1.03587 -8.03825,2.09155 -11.98304,2.99071 -13.76956,3.14901 -27.77414,5.41311 -41.88178,6.72822 -6.52229,0.61782 -13.28903,1.03546 -19.8344,1.24787 -8.21413,0.26006 -16.47934,0.19979 -24.63735,-0.15607 -5.74377,-0.25043 -11.39687,-0.64658 -17.13504,-1.20007 -5.95606,-0.57764 -12.09451,-1.34192 -18.00286,-2.25876 -19.25463,-2.95683 -38.24427,-7.63856 -56.66615,-13.97299 -15.29142,-5.26414 -30.32203,-11.71413 -44.69993,-19.23593 -7.46992,-3.87249 -14.75682,-8.08709 -21.94633,-12.4541 -5.22922,-3.0945 -11.34304,-4.66936 -17.41793,-4.41275 -7.62275,0.25478 -15.05858,3.32788 -20.76187,8.36928 -2.07133,1.88892 -4.21983,3.70132 -6.5941,5.20351 -11.66676,7.60208 -26.66493,10.01097 -40.05831,6.06224 -13.41419,-3.8622 -24.96204,-13.69126 -30.92193,-26.31477 -4.074641,-8.46271 -5.585005,-18.12885 -4.252527,-27.42911 1.341887,-9.99627 5.797907,-19.5282 12.562647,-27.00443 3.08077,-3.56254 5.71619,-7.6165 6.99725,-12.18851 2.94741,-9.58895 1.16375,-20.46081 -4.60299,-28.65676 -12.80242,-20.84024 -23.218474,-43.24809 -31.011622,-66.48805 -1.307617,-3.88984 -2.486925,-7.655 -3.652596,-11.60441 -2.815247,-9.54172 -5.180857,-19.23741 -7.113324,-29.03569 -1.995273,-10.14619 -3.52486,-20.47121 -4.547931,-30.80466 -0.411133,-4.12528 -0.750894,-8.42768 -0.996219,-12.55807 -0.495883,-8.14998 -0.677867,-16.27499 -0.550254,-24.47184 0.09721,-6.23871 0.360495,-12.47774 0.821846,-18.74298 0.873296,-12.15091 2.477636,-24.36781 4.741595,-36.34093 2.379319,-12.57176 5.538983,-25.09243 9.387329,-37.23188 10.584059,-33.38263 26.617606,-65.02137 47.230476,-93.33008 0.78748,-1.07136 1.66615,-2.27587 2.483,-3.3565 13.90635,-18.64817 29.73575,-35.72225 47.22793,-51.07124 3.06077,-2.67737 6.29255,-5.41394 9.50116,-8.01673 3.19546,-2.59633 6.41054,-5.11418 9.73411,-7.60901 6.43148,-4.84965 13.17314,-9.53599 20.00063,-13.92259 25.85115,-16.60703 54.18348,-29.651651 83.72564,-38.345561 12.48401,-3.682332 25.1934,-6.598529 38.03065,-8.746734 7.95917,-1.321881 16.13513,-2.374354 24.18541,-3.088955 6.65905,-0.595332 13.33684,-0.979106 20.01967,-1.168858 2.87275,-0.06185 5.95143,-0.117492 8.89258,-0.148437 z" /><path
     id="path2"
     style="fill:#000000;fill-opacity:1;fill-rule:nonzero;stroke:#000000;stroke-width:16.67px"
     d="m 384.46308,194.42694 c -43.51339,129.85665 -87.03154,259.71171 -130.54492,389.56836 7.58593,2.53906 15.17187,5.07812 22.75781,7.61719 43.72498,-130.48881 87.4547,-260.97604 131.17969,-391.46485 -7.58594,-2.53906 -15.17188,-5.07812 -22.75782,-7.61718 -0.21159,0.63216 -0.42317,1.26432 -0.63476,1.89648 z" /><path
     id="path3"
     style="fill:#000000;fill-opacity:1;fill-rule:nonzero;stroke:#000000;stroke-width:16.67px"
     d="m 403.77753,193.25311 c -6.98242,2.23438 -13.96484,4.46875 -20.94726,6.70313 41.86534,130.9034 83.7284,261.80753 125.59374,392.71093 7.61719,-2.4375 15.23438,-4.875 22.85157,-7.3125 -41.86535,-130.9034 -83.7284,-261.80753 -125.59375,-392.71093 -0.63477,0.20312 -1.26953,0.40625 -1.9043,0.60937 z" /><path
     id="path4"
     style="fill:#000000;fill-opacity:1;fill-rule:nonzero;stroke:#000000;stroke-width:16.67px"
     d="m 301.97089,444.48944 c 0,7.33333 0,14.66667 0,22 60.94401,0 121.88802,0 182.83203,0 0,-8 0,-16 0,-24 -60.94401,0 -121.88802,0 -182.83203,0 0,0.66667 0,1.33333 0,2 z" /></svg>
