<?xml version="1.0" encoding="UTF-8" standalone="no"?><!DOCTYPE svg PUBLIC "-//W3C//DTD SVG 1.1//EN" "http://www.w3.org/Graphics/SVG/1.1/DTD/svg11.dtd"><svg width="100%" height="100%" viewBox="0 0 1612 1428" version="1.1" xmlns="http://www.w3.org/2000/svg" xmlns:xlink="http://www.w3.org/1999/xlink" xml:space="preserve" xmlns:serif="http://www.serif.com/" style="fill-rule:evenodd;clip-rule:evenodd;stroke-linejoin:round;stroke-miterlimit:2;"><g id="Image"><g><path d="M605.003,1425.545c8.594,-0.899 22.656,-0.899 31.25,0c8.594,0.899 1.562,1.634 -15.625,1.634c-17.188,0 -24.219,-0.735 -15.625,-1.634Zm539.879,-0.088c64.902,-0.646 169.902,-0.646 233.333,0.001c63.431,0.647 10.329,1.175 -118.004,1.175c-128.333,-0.001 -180.231,-0.53 -115.329,-1.176Zm-135.155,-59.015c-9.433,-4.284 -22.558,-14.877 -29.167,-23.541l-12.016,-15.753l-1.1,-426.367l-1.1,-426.367l591.782,0l0,418.884c0,448.44 0.61,434.439 -19.951,457.594c-20.748,23.366 -20.436,23.339 -275.883,23.339c-221.03,0 -236.465,-0.476 -252.567,-7.788l0,0Zm300.484,-353.245c75.625,-109.245 138.185,-200.341 139.022,-202.437c0.899,-2.252 -31.05,-3.221 -78.128,-2.37c-52.449,0.948 -79.648,-0.017 -79.647,-2.822c0.001,-2.344 9.378,-55.739 20.836,-118.655c11.458,-62.916 20.833,-117.099 20.833,-120.407c0,-3.308 -58.125,79.968 -129.167,185.058c-71.042,105.09 -129.167,192.598 -129.167,194.461c0,1.864 28.689,3.388 63.753,3.388l63.753,0l-15.615,119.792c-8.588,65.885 -16.327,124.948 -17.198,131.25c-0.871,6.302 -0.501,11.438 0.82,11.414c1.322,-0.025 64.278,-89.427 139.903,-198.672Zm-620.833,340.383c4.148,-4.583 8.479,-8.333 9.625,-8.333c1.146,0 -1.31,3.75 -5.458,8.333c-4.148,4.583 -8.479,8.333 -9.625,8.333c-1.146,0 1.31,-3.75 5.458,-8.333Zm-216.777,-333.333c0,-161.562 0.517,-227.656 1.15,-146.875c0.633,80.781 0.633,212.969 0,293.75c-0.633,80.781 -1.15,14.688 -1.15,-146.875Zm241.546,160.417c-0.002,-71.042 0.566,-100.69 1.263,-65.885c0.696,34.805 0.698,92.93 0.003,129.167c-0.694,36.237 -1.264,7.76 -1.266,-63.282Zm895.985,-289.583c0,-230.312 0.504,-324.531 1.12,-209.375c0.616,115.156 0.616,303.594 0,418.75c-0.616,115.156 -1.12,20.938 -1.12,-209.375Zm-824.921,112.5c4.148,-4.583 8.479,-8.333 9.625,-8.333c1.146,0 -1.31,3.75 -5.458,8.333c-4.148,4.583 -8.479,8.333 -9.625,8.333c-1.146,0 1.31,-3.75 5.458,-8.333Zm-767.917,-284.167c-16.227,-16.227 -2.459,-23.013 74.914,-36.93c80.985,-14.566 72.9,-14.215 78.679,-3.417c8.088,15.113 -3.08,19.994 -75.602,33.038c-79.719,14.338 -71.713,13.588 -77.991,7.31Zm624.167,-34.073c0,-0.865 3.281,-4.146 7.292,-7.292c6.609,-5.183 6.756,-5.035 1.573,1.573c-5.443,6.941 -8.865,9.148 -8.865,5.718Zm-574.904,-229.476c-60.319,-22.17 -70.379,-28.516 -65.473,-41.301c4.184,-10.903 18.365,-8.23 83.935,15.821c67.9,24.905 71.022,26.744 66.992,39.443c-4.172,13.146 -17.722,10.932 -85.454,-13.963Zm431.154,-10.618l-150,-2.242l148.712,-0.962c95.699,-0.619 149.63,0.523 151.288,3.204c1.416,2.292 1.996,3.734 1.288,3.204c-0.708,-0.529 -68.788,-1.971 -151.288,-3.204Zm487.5,-16.667c4.148,-4.583 8.479,-8.333 9.625,-8.333c1.146,0 -1.31,3.75 -5.458,8.333c-4.148,4.583 -8.479,8.333 -9.625,8.333c-1.146,0 1.31,-3.75 5.458,-8.333Zm163.542,-23.956c62.448,-0.648 164.635,-0.648 227.083,0c62.448,0.648 11.354,1.178 -113.542,1.178c-124.896,0 -175.99,-0.53 -113.542,-1.178Zm-759.814,-73.961c0.008,-32.083 0.661,-44.658 1.453,-27.943c0.793,16.715 0.788,42.965 -0.012,58.333c-0.799,15.368 -1.447,1.693 -1.441,-30.391Zm212.5,0c0.008,-32.083 0.661,-44.658 1.453,-27.943c0.793,16.715 0.788,42.965 -0.012,58.333c-0.799,15.368 -1.447,1.693 -1.441,-30.391Zm426.741,24.237c3.008,-1.204 6.602,-1.056 7.986,0.329c1.385,1.385 -1.076,2.369 -5.469,2.188c-4.854,-0.2 -5.841,-1.187 -2.517,-2.517l0,0Zm462.5,0c3.008,-1.204 6.602,-1.056 7.986,0.329c1.385,1.385 -1.076,2.369 -5.469,2.188c-4.854,-0.2 -5.841,-1.187 -2.517,-2.517l0,0Zm-1330.979,-105.556c-50.037,-36.116 -57.823,-43.269 -57.823,-53.125c0,-21.15 13.649,-16.073 72.973,27.138c56.175,40.918 67.855,54.922 53.433,64.063c-8.588,5.443 -7.295,6.161 -68.583,-38.076Zm410.146,1.39c3.008,-1.204 6.602,-1.056 7.986,0.329c1.385,1.385 -1.076,2.369 -5.469,2.188c-4.854,-0.2 -5.841,-1.187 -2.517,-2.517l0,-0Zm122.448,-39.654c-10.511,-10.511 -3.319,-19.691 51.148,-65.288c43.801,-36.668 58.003,-46.416 64.583,-44.327c19.967,6.337 10.341,20.481 -46.52,68.35c-56.238,47.345 -60.557,49.92 -69.211,41.265Zm-330.18,-30.633c-12.2,-14.7 -70.813,-120.87 -69.737,-126.319c2.004,-10.146 14.192,-15.361 21.577,-9.232c8.302,6.89 73.339,120.159 73.339,127.727c0,3.115 -3.627,7.605 -8.059,9.977c-10.381,5.556 -10.762,5.508 -17.12,-2.153Zm173.186,-28.369c-12.959,-9.476 24.06,-149.999 40.003,-151.848c17.366,-2.014 17.529,8.09 1.222,75.841c-18.97,78.814 -24.2,88.456 -41.225,76.007Z" style="fill:#8c8c8c;"/><path d="M556.869,1418.397c-31.767,-11.331 -53.665,-31.029 -72.054,-64.817c-7.544,-13.861 -8.04,-29.754 -10.021,-320.833l-2.083,-306.25l-25,-2.775c-41.675,-4.626 -71.907,-18.465 -98.557,-45.115c-29.782,-29.782 -36.859,-50.985 -36.859,-110.426c0,-35.55 -2.297,-50.406 -14.539,-94.035c-23.506,-83.77 -21.606,-87.232 47.873,-87.232l45.833,0l0,-60.119c0,-67.369 2.167,-73.214 27.145,-73.214c23.614,0 27.022,9.576 27.022,75.927l0,57.406l100,0l0,-57.406c0,-66.095 3.454,-75.927 26.674,-75.927c24.648,0 27.493,7.686 27.493,74.286l0,59.047l47.917,0c71.886,0 73.753,3.274 50.044,87.768c-12.396,44.176 -14.546,58.309 -14.583,95.864c-0.053,53.047 -6.528,75.026 -29.936,101.619c-27.545,31.293 -72.453,52.071 -112.817,52.199l-15.625,0.049l0,298.191c0,315.601 -0.617,305.622 20.301,328.223c18.38,19.859 29.982,23.586 73.408,23.586c54.003,0 75.77,-11.342 91.956,-47.917c2.028,-4.583 4.677,-75.833 5.886,-158.333l2.198,-150l12.38,-22.351c26.158,-47.227 58.484,-63.708 130.138,-66.351l50.851,-1.875l1.316,-235.962c1.055,-189.164 2.463,-238.854 7.102,-250.545c9.569,-24.119 28.65,-49.044 47.291,-61.779c35.242,-24.075 29.748,-23.638 296.756,-23.638l245.833,0l22.917,10.792c30.963,14.582 45.983,28.085 60.609,54.488l12.308,22.22l0,895.833l-9.403,17.598c-11.991,22.44 -33.892,44.342 -56.332,56.332l-17.598,9.403l-512.236,2.332l-25.916,-12.759c-29.525,-14.535 -43.956,-29.719 -59.389,-62.49l-10.792,-22.917l-1.293,-174.4l-1.293,-174.4l-46.938,1.49c-42.899,1.362 -48.425,2.474 -64.216,12.924c-32.029,21.196 -31.793,19.921 -34.476,186.469c-2.611,162.115 -2.991,164.756 -28.556,198.58c-26.48,35.036 -56.767,47.294 -116.3,47.07c-29.88,-0.112 -54.695,-2.359 -64.436,-5.834Zm957.508,-51.82c19.824,-9.103 28.708,-18.395 37.341,-39.057c5.626,-13.464 6.409,-67.384 6.409,-441.148l0,-425.809l-10.008,-17.078c-5.829,-9.947 -17.573,-21.408 -28.125,-27.449l-18.117,-10.372l-239.583,0c-268.496,0 -258.46,-1.082 -282.527,30.47l-11.223,14.714l0,876.297l12.016,15.754c24.546,32.182 16.892,31.331 281.734,31.331c219.618,0 236.535,-0.514 252.083,-7.653Zm-948.614,-702.759c48.043,-14.267 63.198,-39.473 63.198,-105.11c0,-35.168 2.183,-52.65 9.884,-79.138c5.436,-18.699 8.874,-35.009 7.639,-36.244c-1.235,-1.235 -68.496,-2.246 -149.468,-2.246c-128.634,0 -147.222,0.796 -147.222,6.303c0,3.467 3.75,19.835 8.333,36.375c5.766,20.807 8.341,42.935 8.357,71.822c0.037,67.487 12.946,90.812 59.071,106.743c29.02,10.023 108.634,10.872 140.208,1.495Z" style="fill:#0b0000;"/></g></g></svg>